<svg width="220" height="220" viewBox="0 0 128 128" xmlns="http://www.w3.org/2000/svg">
  <rect width="128" height="128" fill="#E5E5E5"/>

  <!-- 左樓 -->
  <rect x="14" y="52" width="32" height="60" rx="5" fill="#3563E9"/>
  <rect x="21" y="62" width="7" height="7" rx="1.5" fill="white"/>
  <rect x="32" y="62" width="7" height="7" rx="1.5" fill="white"/>
  <rect x="21" y="76" width="7" height="7" rx="1.5" fill="white"/>
  <rect x="32" y="76" width="7" height="7" rx="1.5" fill="white"/>
  <rect x="21" y="90" width="7" height="7" rx="1.5" fill="white"/>
  <rect x="32" y="90" width="7" height="7" rx="1.5" fill="white"/>

  <!-- 中樓 -->
  <rect x="46" y="30" width="36" height="82" rx="5" fill="#3563E9"/>
  <rect x="54" y="42" width="8" height="8" rx="1.5" fill="white"/>
  <rect x="66" y="42" width="8" height="8" rx="1.5" fill="white"/>
  <rect x="54" y="56" width="8" height="8" rx="1.5" fill="white"/>
  <rect x="66" y="56" width="8" height="8" rx="1.5" fill="white"/>
  <rect x="54" y="70" width="8" height="8" rx="1.5" fill="white"/>
  <rect x="66" y="70" width="8" height="8" rx="1.5" fill="white"/>
  <rect x="54" y="84" width="8" height="8" rx="1.5" fill="white"/>
  <rect x="66" y="84" width="8" height="8" rx="1.5" fill="white"/>
  <!-- 門口縮小 -->
  <path d="M60 112V104C60 100.5 62 98.5 64 98.5C66 98.5 68 100.5 68 104V112H60Z" fill="white"/>

  <!-- 右樓 -->
  <rect x="82" y="52" width="32" height="60" rx="5" fill="#3563E9"/>
  <rect x="89" y="62" width="7" height="7" rx="1.5" fill="white"/>
  <rect x="100" y="62" width="7" height="7" rx="1.5" fill="white"/>
  <rect x="89" y="76" width="7" height="7" rx="1.5" fill="white"/>
  <rect x="100" y="76" width="7" height="7" rx="1.5" fill="white"/>
  <rect x="89" y="90" width="7" height="7" rx="1.5" fill="white"/>
  <rect x="100" y="90" width="7" height="7" rx="1.5" fill="white"/>
</svg>